<svg id="Layer_1" data-name="Layer 1" xmlns="http://www.w3.org/2000/svg" viewBox="0 0 101.75 30.85"><defs><style>.cls-1{fill:#4b7bec;}.cls-2{fill:#301186;}.cls-3{fill:#fff;}</style></defs><title>logo updated</title><path class="cls-1" d="M79.74,38.77l-2.77,3V48H72.63V25.7H77V35.81L85.91,25.7h5.7l-8.85,9.73L91.67,48H86.22Z" transform="translate(-72.63 -21.27)"/><path class="cls-1" d="M108.07,40.15a8.12,8.12,0,1,1-16.24,0,8.12,8.12,0,1,1,16.24,0Zm-4.19,0c0-2.93-1.89-4.41-3.93-4.41S96,37.22,96,40.15s1.89,4.41,3.94,4.41S103.88,43.08,103.88,40.15Z" transform="translate(-72.63 -21.27)"/><path class="cls-1" d="M113.64,42.8a2.58,2.58,0,0,0,2.83,2.36c1.39,0,2-.73,2-1.55s-.47-1.26-1.67-1.51l-2-.47c-3-.66-4.35-2.46-4.35-4.63,0-2.77,2.46-5.06,5.79-5.06,4.41,0,5.89,2.8,6.08,4.47l-3.49.78a2.37,2.37,0,0,0-2.55-2.08,1.79,1.79,0,0,0-2,1.55c0,.75.57,1.22,1.42,1.38l2.2.47c3.06.63,4.6,2.49,4.6,4.76,0,2.52-2,5.1-6,5.1-4.66,0-6.27-3-6.46-4.79Z" transform="translate(-72.63 -21.27)"/><path class="cls-1" d="M130.07,47.89h-4.18V25.1h4.18v8.6a5.53,5.53,0,0,1,4.19-1.7c3.93,0,5.76,2.74,5.76,6.14v9.75h-4.19v-9c0-1.73-.85-3.08-2.86-3.08a2.91,2.91,0,0,0-2.9,3Z" transform="translate(-72.63 -21.27)"/><rect class="cls-2" x="70.9" width="30.85" height="30.85" rx="3.44"/><path class="cls-3" d="M161.2,43.18a6.81,6.81,0,0,1-6.89,4.8,7.66,7.66,0,0,1-7.82-8.09,7.6,7.6,0,0,1,7.45-8c4.67,0,7.47,3,7.47,7.85,0,.58-.06,1.2-.06,1.26H150.52a3.69,3.69,0,0,0,3.82,3.45,3.35,3.35,0,0,0,3.44-2.31Zm-3.82-5a3,3,0,0,0-3.38-3,3.28,3.28,0,0,0-3.39,3Z" transform="translate(-72.63 -21.27)"/><path class="cls-3" d="M165.26,29.91l-3.21-4.5H165c.31.5,1.48,2.18,1.8,2.68l1.78-2.68h2.77l-3.16,4.42,3.27,4.61h-2.87l-1.89-2.77c-.33.49-1.54,2.27-1.85,2.77h-2.75Z" transform="translate(-72.63 -21.27)"/></svg>